<svg xmlns="http://www.w3.org/2000/svg" width="128" height="128" viewBox="0 0 128 128">
  <g id="landfill" transform="translate(-40 -404)">
    <circle id="Ellipse_10" data-name="Ellipse 10" cx="64" cy="64" r="64" transform="translate(40 404)" fill="#e3404b"/>
    <g id="icon" transform="translate(56.487 441.085)">
      <path id="Shape" d="M17.319,13.269A4.657,4.657,0,0,0,21.639,8.95,4.6,4.6,0,0,0,17.319,4.69,4.6,4.6,0,0,0,13,8.95,4.657,4.657,0,0,0,17.319,13.269Z" transform="translate(1.352 -4.69)" fill="#fff"/>
      <path id="Shape-2" data-name="Shape" d="M16.769,35.088A17.306,17.306,0,0,1,33.047,23.541h.518a18.142,18.142,0,0,1,1.1-3.228A12.909,12.909,0,0,0,22.969,12,13.75,13.75,0,0,0,10.011,26.4a15.282,15.282,0,0,0,3.058,9.151A18.4,18.4,0,0,1,16.769,35.088Z" transform="translate(-4.298 -1.416)" fill="#fff"/>
      <path id="Shape-3" data-name="Shape" d="M90.063,38.867h-.026a12.567,12.567,0,0,0-4.521.864,2.88,2.88,0,0,1-3.686-1.558,12.978,12.978,0,0,0-10.856-7.861A2.88,2.88,0,0,1,68.36,27.1a9.157,9.157,0,0,0,.081-1.14A12.944,12.944,0,0,0,55.483,13h-.029A12.972,12.972,0,0,0,42.565,25.051a2.88,2.88,0,0,1-3.455,2.62,11.436,11.436,0,0,0-13.615,9.045,2.88,2.88,0,0,1-3.1,2.3q-.726-.069-1.44-.069A12.958,12.958,0,0,0,8.016,51.926c.006.481.039.962,1.772,1.437l91.954-.126c1.262-.479,1.294-.96,1.3-1.441A12.958,12.958,0,0,0,90.083,38.838ZM43.345,47.218a2.88,2.88,0,0,1-3.9-1.152,3.288,3.288,0,0,0-5.35,0,2.881,2.881,0,0,1-5.062-2.753,9.022,9.022,0,0,1,15.475,0,2.88,2.88,0,0,1-1.158,3.893Zm20.713-8.639a2.88,2.88,0,0,1-3.908-1.152,3.286,3.286,0,0,0-5.347,0,2.881,2.881,0,1,1-5.062-2.753,9.019,9.019,0,0,1,15.472,0,2.88,2.88,0,0,1-1.155,3.893Z" transform="translate(-8.016 0.464)" fill="#fff"/>
    </g>
  </g>
</svg>
