<svg xmlns="http://www.w3.org/2000/svg" width="128" height="128" viewBox="0 0 128 128">
  <g id="litter" transform="translate(-226 -404)">
    <circle id="Ellipse_11" data-name="Ellipse 11" cx="64" cy="64" r="64" transform="translate(226 404)" fill="#e3404b"/>
    <path id="icon" d="M60.025,12.95v-.363a3.27,3.27,0,0,0-3.271-3.27H48.8c.019-.007.032-.015.053-.021,1.828-.6.636-.631.636-.631L43.674,2.8l-3.1.353A4.069,4.069,0,0,1,39.4,5.618a1.767,1.767,0,0,0-.352.392c.049-.138-.376-.149-.376-.149L32.855,0l-3.1.353a4.073,4.073,0,0,1-1.171,2.464,1.461,1.461,0,0,0-.435,1.857L26.993,5.817l.713.719a7.127,7.127,0,0,0-1.771,2.779H23.647a15.284,15.284,0,0,0,.587-4.778s-2.855,1.432-1.994-.289,0-.9,0-.9H13.982L12.046,5.8a4.068,4.068,0,0,1,.924,2.567,1.557,1.557,0,0,0,.183.944H8.787a3.27,3.27,0,0,0-3.27,3.27v.363c0,1.807,1.464,5.179,3.27,5.179h2.082l2.781,45.692a2.182,2.182,0,0,0,2.178,2.069H49.983a2.181,2.181,0,0,0,2.178-2.079l2.53-45.683h2.061C58.56,18.128,60.025,14.756,60.025,12.95ZM38.037,6.492a2.611,2.611,0,0,0,.992-.45,1.477,1.477,0,0,0-.064,1.434l-.381.378C37.812,7.513,36.785,6.9,38.037,6.492Zm.216,2.571.252.254h-.535C38.067,9.23,38.162,9.145,38.252,9.063ZM49.421,20.647H15.7l-.462-2.519H50.328ZM70.164,60.52s-2.457,2.586-4.136,3.065-.368,1.567-.368,1.567l-1.327-.311-.8.6-.705-.95a15.3,15.3,0,0,1-5.2-1.221c-2.271-1.1,1.013-4.319,1.013-4.319l-.713-.719,1.152-1.143a1.461,1.461,0,0,1,.435-1.857,4.075,4.075,0,0,0,1.171-2.464l3.1-.353L69.6,58.272s1.193.03-.636.632S70.164,60.52,70.164,60.52Z" transform="translate(252.159 435.055)" fill="#fff"/>
  </g>
</svg>
