<svg xmlns="http://www.w3.org/2000/svg" width="128" height="128" viewBox="0 0 128 128"><g transform="translate(0.449)"><circle cx="64" cy="64" r="64" transform="translate(-0.449)" fill="#e3404b"/><path d="M62.659,72.171,57.011,26.7a2.186,2.186,0,0,0-3.426-1.52L48,30.553l.036-7.431a2.184,2.184,0,0,0-.091-1.342l-2.181-5.452,8.086-3.458a2.186,2.186,0,0,0,1.158-2.21L53.913,1.915A2.186,2.186,0,0,0,51.744,0H35.213V8.017c0,1.207-1.937,3.875-3.875,3.875s-3.875-2.667-3.875-3.875V0H10.932A2.186,2.186,0,0,0,8.762,1.915L7.851,9.2a2.186,2.186,0,0,0,.739,1.925L13.372,14,8.7,14.614a2.186,2.186,0,0,0-1.76,1.877L2.932,48.557A2.186,2.186,0,0,0,4.41,50.9l7.325.5-3.7,5.906L2.666,58.534a2.186,2.186,0,0,0-1.193,1.691L.016,72.177a2.186,2.186,0,0,0,2.17,2.451H27.463V51.744c0-1.207,1.937-3.875,3.875-3.875s3.875,2.667,3.875,3.875V74.627H60.489a2.186,2.186,0,0,0,2.17-2.456ZM35.213,40.083c0,1.207-1.937,3.875-3.875,3.875s-3.875-2.667-3.875-3.875V19.741c0-1.207,1.937-3.875,3.875-3.875s3.875,2.667,3.875,3.875Z" transform="matrix(0.966, 0.259, -0.259, 0.966, 44.152, 20.782)" fill="#fff"/></g></svg>