<svg xmlns="http://www.w3.org/2000/svg" width="128" height="128" viewBox="0 0 128 128"><g transform="translate(0.196)"><circle cx="64" cy="64" r="64" transform="translate(-0.196)" fill="#e3404b"/><g transform="translate(31.933 22.326)"><path d="M141.129,11.49a10.358,10.358,0,0,0-9.536-6.312H124.01L120.551,0H106.758L103.3,5.178H95.715a10.358,10.358,0,0,0-9.536,6.312Z" transform="translate(-81.966)" fill="#fff"/><path d="M63.99,415.936h5.5v15.533h-5.5Z" transform="translate(-63.367 -348.626)" fill="#fff"/><path d="M413.929,415.936h5.5v15.533h-5.5Z" transform="translate(-356.677 -348.626)" fill="#fff"/><path d="M60.142,101v4.846h6.366l4.606,46.064,0,15.588H112.54V151.965l4.614-46.12h6.366V101Zm39.821,34.05a2.849,2.849,0,1,0-2.849,2.849v4.855a7.674,7.674,0,0,1-5.283-2.1,7.674,7.674,0,0,1-5.283,2.1V137.9a2.848,2.848,0,0,0,1.373-5.344l-.019-.011a2.848,2.848,0,0,0-4.2,2.506H78.844a7.717,7.717,0,0,1,5.482-7.376,7.762,7.762,0,0,1-.2-1.76,7.653,7.653,0,0,1,2.257-5.447l3.433,3.433a2.849,2.849,0,1,0,4.029,0l3.433-3.433a7.653,7.653,0,0,1,2.256,5.447,7.759,7.759,0,0,1-.2,1.758,7.717,7.717,0,0,1,5.489,7.378Z" transform="translate(-60.142 -84.655)" fill="#fff"/></g></g></svg>