<svg xmlns="http://www.w3.org/2000/svg" width="128" height="128" viewBox="0 0 128 128"><g transform="translate(0.196)"><circle cx="64" cy="64" r="64" transform="translate(-0.196)" fill="#e3404b"/><g transform="translate(-32.067 21.506)"><g transform="translate(64 0)"><path d="M127.559,49.759c-.974-12.675-6.875-20.618-12.081-27.627-4.821-6.489-8.984-12.093-8.984-20.359A1.773,1.773,0,0,0,105.533.2a1.754,1.754,0,0,0-1.84.135C95.874,5.928,89.35,15.358,87.071,24.356,85.489,30.62,85.28,37.662,85.25,42.313,78.03,40.77,76.394,29.97,76.377,29.852a1.77,1.77,0,0,0-2.526-1.343c-.379.183-9.294,4.713-9.813,22.8C64,51.91,64,52.514,64,53.117A31.906,31.906,0,0,0,95.87,84.985a.247.247,0,0,0,.071,0h.022a31.907,31.907,0,0,0,31.777-31.868C127.741,52.233,127.559,49.759,127.559,49.759ZM95.87,81.444c-5.858,0-10.623-5.076-10.623-11.316,0-.213,0-.427.014-.69a14.353,14.353,0,0,1,1.119-5.623c1.027,2.206,2.863,4.234,5.846,4.234A1.77,1.77,0,0,0,94,66.28a35.419,35.419,0,0,1,.68-8.054,17.121,17.121,0,0,1,3.584-6.788,22.814,22.814,0,0,0,3.65,6.7c2.049,2.912,4.167,5.922,4.539,11.055.022.3.045.61.045.939C106.494,76.368,101.729,81.444,95.87,81.444Z" transform="translate(-64 0)" fill="#fff"/></g></g></g></svg>